<?xml version="1.0" standalone="no"?>
<!DOCTYPE svg PUBLIC "-//W3C//DTD SVG 20010904//EN"
 "http://www.w3.org/TR/2001/REC-SVG-20010904/DTD/svg10.dtd">
<svg version="1.0" xmlns="http://www.w3.org/2000/svg"
 width="665.000000pt" height="665.000000pt" viewBox="0 0 665.000000 665.000000"
 preserveAspectRatio="xMidYMid meet">

<g transform="translate(0.000000,665.000000) scale(0.100000,-0.100000)"
fill="#000000" stroke="none">
<path d="M3020 5934 c-256 -163 -478 -305 -495 -315 -16 -10 -217 -137 -445
-283 -228 -145 -520 -331 -649 -413 -131 -82 -262 -174 -297 -206 -110 -102
-180 -234 -204 -387 -8 -55 -10 -416 -8 -1360 4 -1437 -2 -1321 76 -1480 48
-99 174 -227 283 -288 174 -97 382 -162 584 -183 101 -10 172 -8 311 7 l51 6
7 -84 c20 -231 95 -377 268 -522 36 -31 71 -56 77 -56 6 0 39 -15 73 -34 187
-103 416 -157 657 -158 164 0 296 20 441 68 190 63 85 -1 2190 1339 l175 111
3 1428 c2 1181 0 1427 -11 1423 -7 -3 -342 -214 -743 -469 -401 -256 -904
-576 -1119 -713 -402 -256 -493 -308 -605 -344 -233 -75 -499 -68 -716 19 -88
35 -175 82 -194 105 -7 8 -18 15 -26 15 -21 0 -83 89 -99 143 -19 65 -19 130
0 195 31 102 47 114 990 713 479 304 1016 646 1194 759 179 114 326 211 328
216 4 14 -307 206 -326 201 -16 -4 -231 -141 -1401 -887 -855 -545 -902 -575
-986 -610 -131 -54 -215 -72 -374 -77 -216 -8 -362 25 -544 121 -140 73 -206
170 -206 301 0 80 22 144 70 197 28 32 356 246 1249 813 666 424 1211 773
1211 776 0 5 -316 209 -323 209 -1 0 -211 -134 -467 -296z m2738 -3040 l-3
-1006 -800 -509 c-440 -280 -829 -528 -865 -551 -325 -209 -414 -251 -599
-283 -290 -51 -635 34 -807 200 -101 98 -94 18 -94 1112 0 519 2 943 5 943 3
0 42 -18 87 -41 315 -158 720 -188 1061 -78 50 17 133 50 182 73 50 24 479
292 955 595 476 303 868 551 873 551 4 0 6 -453 5 -1006z m-4198 626 c51 -17
135 -38 184 -47 102 -17 300 -22 420 -10 l79 8 -7 -47 c-3 -26 -6 -494 -6
-1040 l0 -993 -47 -8 c-91 -15 -362 -9 -432 11 -182 50 -305 110 -382 186 -95
94 -89 15 -89 1099 0 520 0 949 0 953 0 4 42 -13 93 -37 51 -24 135 -58 187
-75z"/>
<path d="M3855 5592 c-176 -109 -457 -283 -625 -387 -342 -211 -866 -535
-1190 -734 -118 -73 -225 -142 -238 -154 -46 -42 -48 -131 -5 -179 40 -44 93
-63 183 -63 102 0 69 -17 515 259 176 109 435 269 575 356 140 86 417 257 615
380 436 269 783 483 809 497 17 9 12 15 -40 50 -69 46 -272 173 -276 173 -2 0
-147 -90 -323 -198z"/>
<path d="M4295 4239 c-638 -406 -1172 -752 -1187 -769 -34 -37 -38 -105 -11
-151 21 -35 99 -75 163 -84 102 -13 101 -13 970 541 448 286 980 625 1183 753
202 128 367 236 367 240 0 5 -190 128 -290 187 l-35 21 -1160 -738z"/>
</g>
</svg>
