<?xml version="1.0" standalone="no"?>
<!DOCTYPE svg PUBLIC "-//W3C//DTD SVG 20010904//EN"
 "http://www.w3.org/TR/2001/REC-SVG-20010904/DTD/svg10.dtd">
<svg version="1.0" xmlns="http://www.w3.org/2000/svg"
 width="640.000000pt" height="187.000000pt" viewBox="0 0 640.000000 187.000000"
 preserveAspectRatio="xMidYMid meet">

<g transform="translate(0.000000,187.000000) scale(0.100000,-0.100000)"
fill="#000000" stroke="none">
<path d="M884 1672 c-21 -15 -161 -105 -309 -199 -149 -95 -280 -182 -292
-195 -41 -43 -43 -66 -43 -443 0 -313 2 -370 16 -405 30 -75 142 -130 263
-130 l68 0 6 -41 c9 -66 47 -113 124 -151 62 -30 75 -33 158 -32 116 0 147 13
355 147 91 58 218 140 283 182 l117 75 0 380 c0 209 -3 380 -7 380 -5 -1 -55
-32 -113 -70 -236 -156 -499 -320 -533 -335 -76 -31 -219 -11 -266 38 -11 13
-23 37 -27 53 -10 53 -28 40 534 397 78 50 142 93 142 96 0 4 -19 17 -43 30
l-43 23 -309 -198 c-171 -109 -326 -203 -345 -210 -43 -16 -142 -18 -194 -3
-89 25 -125 109 -68 161 15 14 140 96 277 183 138 87 278 176 313 198 35 22
59 43 55 47 -4 4 -24 16 -44 28 l-36 22 -39 -28z m654 -874 l-3 -273 -262
-167 c-265 -169 -323 -198 -392 -198 -58 0 -141 29 -173 60 l-28 28 0 261 c0
144 3 261 8 261 4 0 34 -9 66 -20 82 -28 184 -26 256 3 42 18 325 191 495 303
11 7 23 13 28 13 4 1 6 -122 5 -271z m-1172 187 c43 -22 132 -38 181 -32 l43
5 0 -284 0 -284 -67 0 c-76 0 -163 33 -182 69 -10 18 -17 541 -7 541 2 0 17
-7 32 -15z"/>
<path d="M1039 1537 c-37 -23 -179 -112 -318 -197 -148 -92 -254 -163 -257
-174 -9 -26 23 -48 61 -44 33 4 664 386 664 403 1 8 -72 57 -81 54 -2 0 -33
-19 -69 -42z"/>
<path d="M5551 1473 c-27 -33 -51 -115 -59 -201 l-7 -67 -87 -3 -87 -3 -7 36
c-9 48 -40 85 -70 85 -31 0 -68 -36 -85 -83 l-13 -36 -145 -3 c-130 -3 -146
-5 -149 -20 -3 -16 9 -18 137 -18 78 0 141 -2 141 -4 0 -1 -5 -61 -10 -132 -8
-92 -8 -161 0 -242 l11 -113 -31 -49 c-68 -106 -144 -146 -190 -100 -29 29
-34 63 -21 140 15 93 15 97 -14 125 -17 18 -35 25 -64 25 -36 0 -41 3 -47 28
-17 83 -44 100 -85 54 -52 -58 -48 -132 7 -132 29 0 31 -20 5 -75 -25 -55 -62
-86 -110 -92 l-41 -6 0 70 c0 56 -4 77 -23 104 -41 62 -117 48 -131 -24 -9
-48 9 -96 54 -142 l40 -41 -29 -28 c-61 -59 -159 -37 -180 41 -15 55 2 110 50
154 44 40 49 59 18 59 -20 0 -71 -46 -126 -113 -47 -59 -122 -13 -163 101 -16
43 -28 62 -40 62 -16 0 -17 -12 -17 -107 1 -121 -11 -172 -50 -203 -34 -26
-56 -25 -90 4 -28 24 -28 25 -28 143 0 113 -1 118 -21 121 -25 4 -34 -27 -34
-112 -1 -95 -50 -166 -116 -166 -42 0 -57 20 -62 83 -4 49 2 74 39 164 10 25
11 35 1 45 -19 19 -49 -17 -73 -89 -27 -83 -85 -168 -139 -204 -42 -28 -100
-39 -100 -19 0 6 4 10 8 10 14 0 32 48 32 85 0 20 -19 72 -45 127 -34 69 -44
100 -40 120 9 41 -3 68 -30 68 -28 0 -34 -16 -32 -87 2 -94 -113 -291 -179
-307 -50 -13 -92 37 -115 132 -6 27 0 53 26 124 93 250 129 509 84 604 -8 15
-26 35 -41 44 -25 13 -31 13 -55 0 -70 -39 -108 -208 -101 -457 4 -131 2 -160
-8 -152 -19 15 -78 -6 -119 -43 -19 -16 -58 -66 -88 -111 -62 -95 -117 -147
-153 -147 -68 0 -91 51 -74 163 16 110 -5 147 -84 147 -31 0 -36 4 -42 28 -18
85 -45 101 -86 52 -51 -62 -47 -130 8 -130 29 0 31 -20 5 -75 -25 -55 -62 -86
-110 -92 l-41 -6 0 70 c0 56 -4 77 -23 103 -41 61 -97 58 -123 -7 -22 -52 -4
-111 49 -159 l39 -36 -29 -30 c-39 -39 -96 -47 -140 -19 -69 43 -62 160 13
217 38 30 44 54 14 54 -36 0 -101 -70 -114 -125 -32 -125 38 -213 162 -203 50
4 59 9 95 48 34 36 48 44 85 47 94 8 158 65 183 163 12 49 14 50 50 50 46 0
51 -11 40 -100 -15 -113 10 -179 74 -200 56 -19 98 -5 159 51 l54 49 7 -30
c15 -69 106 -93 165 -44 17 15 40 44 51 65 11 22 23 39 27 39 4 0 14 -15 20
-34 27 -74 82 -111 148 -98 43 8 114 88 159 180 22 45 43 82 47 82 13 0 58
-109 58 -140 0 -35 -31 -70 -60 -70 -12 0 -32 7 -45 16 -13 9 -29 13 -35 9
-35 -22 27 -81 101 -97 81 -17 153 7 218 72 l50 50 20 -38 c22 -43 55 -62 107
-62 26 0 45 9 79 41 l44 40 15 -28 c28 -56 112 -74 165 -36 33 25 62 83 69
139 5 44 18 57 28 29 8 -21 88 -56 120 -53 24 3 29 -1 34 -27 17 -78 78 -120
165 -113 55 5 104 34 123 74 8 16 20 21 55 21 92 2 162 63 188 164 l13 50 41
-3 c40 -3 40 -3 38 -43 -1 -22 -3 -69 -5 -105 -4 -81 20 -128 74 -148 59 -23
101 -9 162 51 29 29 59 61 65 72 8 13 14 16 17 8 3 -7 18 -31 33 -53 39 -58
76 -80 136 -80 47 0 52 3 102 56 l53 56 0 -41 c0 -28 7 -48 21 -62 18 -18 23
-19 42 -6 12 8 48 61 80 118 62 111 100 159 128 159 15 0 18 -14 21 -115 3
-109 4 -116 30 -141 70 -70 184 -3 261 154 18 36 19 45 8 52 -22 13 -37 2 -57
-42 -24 -54 -114 -148 -141 -148 -38 0 -48 27 -53 147 -6 127 -14 143 -73 143
-41 0 -91 -54 -158 -171 l-54 -94 -3 77 c-3 73 -1 81 39 160 148 295 195 614
103 713 -32 35 -85 35 -113 -2z m95 -59 c10 -24 14 -62 12 -122 l-3 -87 -62
-3 c-36 -2 -63 1 -63 7 0 38 24 171 37 203 12 29 21 38 40 38 18 0 28 -9 39
-36z m-2665 -86 c24 -87 -2 -279 -62 -464 l-32 -99 -9 40 c-15 65 -3 390 16
460 31 111 67 136 87 63z m2269 -77 c19 -37 12 -51 -25 -51 -39 0 -44 13 -19
48 19 27 30 28 44 3z m10 -139 c0 -84 -49 -296 -83 -357 -10 -19 -12 -18 -18
10 -15 69 -4 353 16 385 3 6 24 10 46 10 l39 0 0 -48z m214 -189 l-7 -238 -29
-56 c-79 -151 -171 -164 -233 -34 l-27 58 31 66 c54 119 101 299 101 390 0 21
3 41 7 44 3 4 42 7 84 7 l79 0 -6 -237z m170 228 c14 -21 -96 -351 -116 -351
-10 0 -11 247 -2 314 l7 46 53 0 c29 0 55 -4 58 -9z m-3434 -322 c0 -10 -7
-19 -15 -19 -15 0 -21 31 -9 43 11 10 24 -3 24 -24z m2500 0 c0 -10 -7 -19
-15 -19 -15 0 -21 31 -9 43 11 10 24 -3 24 -24z m-1867 -110 c5 -44 2 -59 -22
-107 -39 -76 -65 -102 -102 -102 -61 0 -73 108 -22 187 16 23 121 83 134 77 3
-2 9 -26 12 -55z m-878 18 c8 -13 18 -44 21 -70 6 -40 4 -47 -10 -47 -23 0
-61 81 -52 114 8 32 21 33 41 3z m2500 0 c8 -13 18 -44 21 -70 6 -38 4 -47 -8
-47 -30 0 -64 74 -54 116 8 30 21 31 41 1z"/>
<path d="M1214 1207 c-131 -84 -274 -175 -317 -202 -66 -43 -77 -54 -75 -75 2
-18 11 -27 35 -33 30 -9 46 0 280 148 136 87 283 181 326 208 42 27 77 50 77
52 0 3 -78 55 -83 55 -2 0 -111 -69 -243 -153z"/>
<path d="M6094 506 c-12 -31 0 -51 31 -51 24 0 31 5 33 24 6 36 -51 60 -64 27z"/>
</g>
</svg>
